<?xml version="1.0" standalone="no"?>
<!DOCTYPE svg PUBLIC "-//W3C//DTD SVG 20010904//EN"
 "http://www.w3.org/TR/2001/REC-SVG-20010904/DTD/svg10.dtd">
<svg version="1.0" xmlns="http://www.w3.org/2000/svg"
 width="300.000000pt" height="205.000000pt" viewBox="0 0 300.000000 205.000000"
 preserveAspectRatio="xMidYMid meet">
<metadata>
Created by potrace 1.10, written by Peter Selinger 2001-2011
</metadata>
<g transform="translate(0.000000,205.000000) scale(0.100000,-0.100000)"
fill="#6034b2" stroke="none">
<path d="M1385 1932 c-66 -5 -215 -36 -215 -44 0 -4 -7 -8 -16 -8 -24 0 -168
-74 -227 -116 -265 -191 -422 -545 -378 -856 21 -149 78 -296 160 -416 44 -65
152 -174 227 -230 74 -55 207 -117 294 -137 41 -9 91 -22 112 -27 21 -6 84 -8
150 -5 254 11 475 111 647 293 76 80 105 120 163 232 90 173 115 425 63 622
-74 277 -249 490 -498 608 -37 18 -74 32 -82 32 -8 0 -15 4 -15 8 0 16 -268
56 -330 50 -14 -2 -38 -4 -55 -6z m280 -41 c329 -68 585 -315 677 -653 31
-115 31 -325 0 -443 -82 -306 -318 -547 -627 -641 -82 -25 -105 -27 -250 -27
-146 -1 -168 2 -248 26 -248 76 -442 240 -556 470 -109 219 -121 496 -31 721
112 284 352 487 650 550 96 21 277 19 385 -3z"/>
<path d="M1345 1829 c-267 -41 -490 -203 -611 -441 l-44 -87 129 -3 c111 -3
130 -1 146 15 30 28 91 23 126 -12 81 -81 -34 -212 -124 -141 -14 11 -29 30
-32 41 -6 18 -14 19 -138 17 l-131 -3 -7 -40 c-4 -22 -9 -61 -12 -87 l-5 -48
279 0 278 0 26 34 26 35 144 3 c162 3 185 12 185 74 0 55 -24 64 -172 64
l-127 0 -81 101 -80 102 0 63 0 64 242 0 c190 0 254 -3 298 -16 105 -29 202
-127 235 -237 19 -65 19 -180 0 -243 -8 -27 -15 -50 -15 -51 0 -2 23 -3 51 -3
40 0 58 5 81 25 44 37 98 35 132 -6 63 -74 -6 -180 -98 -149 -19 6 -42 22 -50
36 -15 22 -23 24 -88 24 -66 0 -73 -2 -108 -34 -20 -18 -46 -38 -56 -44 -17
-9 -17 -12 7 -43 14 -19 81 -109 149 -201 110 -150 140 -184 140 -161 0 7 -79
123 -90 133 -3 3 -43 57 -90 120 -46 63 -88 118 -93 121 -5 4 8 23 29 43 37
33 43 35 105 36 61 0 70 -3 99 -30 91 -85 238 26 181 138 -43 83 -128 94 -198
27 -10 -10 -22 -11 -65 -6 -4 1 -2 16 3 33 15 54 11 199 -8 254 -29 85 -90
159 -177 211 l-59 37 -161 7 c-185 9 -385 7 -403 -4 -9 -5 -13 -34 -13 -82 l0
-73 85 -106 c47 -58 89 -106 93 -106 201 -4 262 -6 267 -12 11 -11 13 -42 4
-60 -8 -14 -30 -17 -154 -20 l-144 -3 -38 -37 -38 -36 -234 0 c-129 0 -241 3
-250 5 -13 3 -16 14 -13 46 6 89 -1 83 117 81 l106 -2 39 -36 c33 -30 48 -36
83 -36 49 0 81 19 102 60 36 69 2 148 -74 171 -32 10 -43 8 -79 -10 -34 -17
-59 -21 -142 -21 -55 0 -100 2 -100 5 0 9 62 129 69 135 4 3 15 18 25 34 54
84 157 171 272 230 239 121 512 121 744 0 98 -51 135 -78 208 -154 115 -120
183 -264 208 -442 14 -96 14 -120 0 -217 -21 -153 -72 -272 -165 -391 -166
-210 -456 -327 -722 -290 -184 25 -307 83 -462 219 -53 47 -157 199 -157 230
0 3 53 5 117 3 82 -2 121 -7 128 -16 14 -18 70 -46 92 -46 26 0 72 33 94 66
38 58 10 142 -57 170 -44 18 -80 12 -118 -21 -28 -24 -35 -25 -167 -25 -83 0
-140 4 -144 10 -4 6 -9 35 -12 65 l-6 55 274 0 273 0 43 42 42 41 128 4 c145
5 190 21 218 79 20 43 19 123 -2 154 -41 60 -91 78 -219 79 l-100 1 -32 36
c-37 41 -72 89 -72 98 0 3 86 6 191 6 171 0 195 -2 239 -21 113 -49 174 -202
134 -336 -27 -90 -80 -145 -166 -172 -20 -7 -39 -19 -42 -28 -6 -15 78 -141
187 -280 27 -35 46 -63 43 -64 -8 -1 -51 -1 -73 0 -18 1 -49 38 -166 196 -106
142 -107 142 -195 144 -115 1 -112 4 -114 -182 0 -142 -2 -158 -20 -174 -26
-24 -48 -66 -48 -94 0 -33 40 -87 78 -105 99 -47 199 66 147 166 -8 15 -20 30
-26 32 -14 5 -18 238 -4 238 6 -1 18 -11 27 -23 10 -12 46 -58 80 -102 34 -44
65 -82 68 -85 4 -3 26 -31 50 -63 24 -32 51 -62 60 -67 19 -10 328 -15 337 -6
15 15 -17 19 -166 20 -88 1 -162 4 -164 6 -2 3 -66 83 -141 178 -110 138 -142
172 -162 172 l-24 0 0 -131 0 -131 30 -35 c40 -45 40 -85 1 -124 -41 -40 -91
-40 -132 0 -42 42 -36 104 13 139 16 12 18 29 18 178 l0 165 87 -3 86 -3 125
-165 125 -165 78 -5 c44 -3 79 -4 79 -3 0 2 -61 85 -135 185 -110 150 -131
184 -117 190 9 3 33 12 51 19 50 19 98 65 129 123 24 45 27 62 27 146 0 104
-14 144 -75 213 -58 67 -102 77 -345 80 -167 1 -215 -1 -215 -11 0 -6 29 -49
65 -95 l65 -82 131 -5 131 -5 34 -37 c28 -31 34 -46 34 -80 0 -55 -30 -105
-75 -124 -24 -10 -73 -14 -158 -14 l-125 0 -36 -45 -37 -45 -286 0 -286 0 7
-52 c4 -29 11 -70 17 -90 l10 -38 152 0 152 0 28 30 c52 54 134 36 157 -36 15
-45 -1 -89 -41 -109 -43 -23 -75 -18 -112 15 l-35 30 -140 0 -140 0 38 -70
c122 -222 300 -361 540 -421 120 -31 319 -24 435 15 365 123 591 451 572 831
-21 425 -354 750 -787 770 -52 2 -122 0 -155 -6z"/>
<path d="M997 1263 c-14 -13 -7 -43 12 -53 15 -7 23 -6 35 6 19 19 20 26 4 42
-13 13 -41 16 -51 5z"/>
<path d="M2055 1016 c-27 -20 -15 -51 20 -51 23 0 31 5 33 22 4 29 -28 47 -53
29z"/>
<path d="M1062 771 c-8 -4 -12 -19 -10 -32 4 -29 45 -34 61 -7 19 30 -19 60
-51 39z"/>
<path d="M1411 584 c0 -11 3 -14 6 -6 3 7 2 16 -1 19 -3 4 -6 -2 -5 -13z"/>
<path d="M1300 495 c-20 -25 -8 -50 25 -50 21 0 31 5 33 18 4 21 -14 47 -33
47 -7 0 -18 -7 -25 -15z"/>
</g>
</svg>
