<?xml version="1.0" standalone="no"?>
<!DOCTYPE svg PUBLIC "-//W3C//DTD SVG 20010904//EN"
 "http://www.w3.org/TR/2001/REC-SVG-20010904/DTD/svg10.dtd">
<svg version="1.0" xmlns="http://www.w3.org/2000/svg"
 width="300.000000pt" height="205.000000pt" viewBox="0 0 300.000000 205.000000"
 preserveAspectRatio="xMidYMid meet">
<metadata>
Created by potrace 1.10, written by Peter Selinger 2001-2011
</metadata>
<g transform="translate(0.000000,205.000000) scale(0.050000,-0.050000)"
fill="#6034b2" stroke="none">
<path d="M2780 4021 c-27 -9 -78 -18 -113 -19 -113 -4 -647 -189 -647 -224 0
-10 -18 -18 -40 -18 -22 0 -40 -9 -40 -20 0 -11 -13 -20 -28 -20 -15 0 -33
-14 -40 -31 -6 -17 -20 -26 -31 -20 -11 7 -40 -8 -65 -33 -25 -25 -51 -44 -57
-42 -22 7 -379 -376 -379 -406 0 -7 -26 -45 -57 -85 -57 -72 -143 -234 -143
-269 0 -10 -19 -44 -42 -77 -23 -33 -37 -64 -31 -71 6 -6 -2 -24 -19 -40 -16
-17 -24 -47 -18 -66 6 -20 4 -42 -6 -47 -9 -6 -19 -48 -21 -94 -1 -45 -10 -93
-18 -106 -18 -29 -20 -612 -1 -601 24 15 38 -66 28 -165 -5 -53 -5 -81 1 -62
20 69 47 12 34 -71 -12 -77 -11 -82 20 -57 29 25 33 22 30 -20 -6 -80 162
-394 297 -555 111 -132 307 -322 332 -322 9 0 44 -27 76 -59 39 -39 71 -55 94
-47 19 7 27 5 19 -4 -19 -21 44 -69 91 -69 20 -1 31 -9 25 -19 -13 -21 409
-164 500 -169 36 -1 61 -10 55 -19 -12 -19 685 -8 754 13 28 8 77 18 110 23
173 26 396 125 380 168 -10 26 -7 27 13 7 42 -42 81 -31 67 20 -8 29 -6 36 5
20 20 -29 278 140 333 219 18 25 32 38 32 30 0 -9 32 16 70 55 39 38 70 74 70
79 0 5 28 39 61 76 34 36 94 120 134 186 40 66 81 126 91 133 11 7 13 38 5 68
-12 49 -10 53 18 30 21 -18 32 -19 34 -3 3 30 8 46 26 87 9 20 11 53 5 75 -6
22 -3 36 5 31 8 -5 25 24 37 65 88 305 86 841 -4 1124 -30 94 -56 185 -58 204
-1 18 -7 32 -13 30 -6 -2 -13 3 -16 11 -17 49 -149 282 -175 308 -16 16 -30
38 -30 47 0 9 -34 51 -76 93 -42 43 -78 86 -80 97 -2 11 -15 20 -29 20 -14 0
-25 12 -25 26 0 36 -250 244 -294 244 -20 0 -36 9 -36 20 0 11 -13 20 -30 20
-16 0 -30 9 -30 20 0 11 -13 20 -30 20 -16 0 -30 8 -30 18 0 24 -306 153 -450
189 -204 50 -572 81 -650 54z m660 -260 c1724 -502 1714 -2946 -14 -3452
-1648 -483 -2960 1457 -1912 2827 430 562 1239 825 1926 625z"/>
<path d="M2750 3668 c-475 -67 -891 -307 -1139 -656 -95 -135 -240 -411 -216
-413 163 -12 503 8 539 32 128 83 306 -10 306 -160 0 -193 -261 -259 -356 -91
l-34 61 -259 -6 -260 -5 -13 -80 c-7 -44 -18 -123 -25 -175 l-12 -95 558 0
559 0 52 69 53 68 286 7 c326 7 371 25 371 148 0 110 -49 128 -344 128 l-255
0 -160 203 -161 203 0 127 0 127 484 0 c552 0 647 -16 808 -137 244 -184 353
-543 258 -855 -16 -54 -30 -100 -30 -103 -1 -35 221 3 260 45 72 76 199 71
268 -12 167 -198 -114 -432 -285 -237 -82 93 -296 88 -403 -8 -41 -38 -91 -77
-111 -88 -32 -19 -6 -62 247 -404 156 -210 284 -389 284 -398 0 -36 -620 -23
-656 14 -19 20 -149 181 -290 359 -206 262 -265 324 -305 324 l-49 0 0 -266 0
-267 60 -57 c176 -169 -71 -416 -258 -258 -86 72 -87 180 -2 265 l60 60 0 322
0 323 173 -6 173 -6 250 -330 250 -330 152 -11 c84 -6 155 -9 158 -7 7 4 -405
570 -490 675 -51 62 -45 93 16 93 283 0 504 533 344 832 -144 269 -231 304
-791 312 -508 7 -487 22 -301 -214 l134 -170 238 0 c333 0 434 -71 409 -288
-21 -185 -114 -232 -462 -232 l-248 0 -74 -90 -74 -90 -571 0 -572 0 13 -105
c7 -58 22 -139 34 -180 l21 -75 304 0 304 0 57 60 c98 104 257 74 313 -59 79
-191 -148 -340 -307 -201 l-68 60 -273 0 c-149 0 -272 -8 -272 -18 0 -74 237
-416 384 -554 1047 -986 2776 -245 2776 1190 0 968 -892 1762 -1830 1630z
m454 -203 c39 -7 50 -18 41 -42 -6 -18 -5 -27 3 -20 21 18 226 -39 335 -93 52
-26 99 -41 105 -35 7 6 12 1 12 -12 0 -13 14 -23 30 -23 17 0 48 -18 70 -40
22 -22 60 -40 85 -40 31 -1 37 -6 20 -17 -19 -11 -5 -35 50 -86 106 -100 229
-237 213 -237 -8 0 0 -16 17 -35 42 -48 115 -197 115 -234 0 -17 7 -31 15 -31
8 0 18 -49 21 -109 l6 -110 -75 32 c-45 18 -106 27 -151 21 -95 -13 -109 6
-123 169 -13 149 -79 343 -135 399 -21 21 -38 47 -38 58 0 11 -9 20 -20 20
-11 0 -18 11 -15 24 3 13 -5 25 -18 25 -30 1 -57 28 -58 58 0 12 -12 21 -26
18 -14 -4 -21 2 -15 13 7 10 -35 49 -93 86 -207 133 -208 133 -683 131 -416
-2 -494 6 -431 46 39 24 64 24 49 -1 -17 -28 11 -24 70 10 33 19 40 30 20 32
-16 2 11 11 60 19 101 16 461 19 544 4z m-1115 -267 c-9 -14 -14 -75 -11 -137
5 -127 -29 -185 -123 -208 -30 -8 -55 -23 -55 -33 0 -11 -46 -20 -102 -20 -88
0 -99 4 -79 29 14 16 18 40 10 53 -9 14 -7 19 6 11 18 -11 93 76 94 111 1 8
14 26 30 40 25 23 25 21 0 -14 -28 -39 -28 -40 16 -2 24 20 38 47 31 58 -7 11
-4 15 6 9 11 -7 41 6 69 28 27 22 36 34 19 27 -16 -8 -3 8 30 36 61 51 86 56
59 12z m1833 -1509 c32 -17 68 -25 78 -19 11 7 14 -2 7 -20 -11 -28 -2 -31 61
-19 58 11 80 6 100 -21 14 -20 38 -30 54 -24 21 8 19 11 -7 12 -74 4 -31 37
45 35 44 -1 80 -4 80 -5 0 -2 -12 -33 -28 -71 -15 -37 -24 -88 -19 -114 6 -36
0 -45 -23 -36 -27 11 -40 -19 -33 -71 2 -8 -11 -9 -27 -3 -20 8 -30 -1 -30
-28 0 -22 -13 -51 -29 -64 -16 -13 -23 -39 -16 -57 18 -51 -109 79 -187 189
-208 297 -215 310 -186 329 41 26 92 22 160 -13z m-1949 -512 c125 -55 266
-78 315 -52 31 16 36 14 25 -13 -39 -96 -39 -103 -5 -62 34 40 34 39 13 -4
-27 -56 -27 -186 0 -186 12 0 15 -11 7 -24 -12 -19 -17 -19 -23 0 -5 13 -17
24 -28 24 -11 0 -1 -24 22 -53 22 -29 41 -67 41 -85 0 -19 -7 -24 -15 -11 -8
11 -67 47 -130 80 -63 32 -115 66 -115 74 0 8 -13 15 -29 15 -17 0 -50 27 -74
59 -24 33 -52 54 -63 47 -12 -7 -16 5 -9 32 10 37 7 40 -17 21 -22 -19 -28
-17 -28 7 0 17 -27 53 -60 81 -107 90 8 123 173 50z m1047 -65 c0 -15 38 -62
85 -104 47 -42 85 -82 84 -87 -2 -42 205 -161 280 -161 28 0 51 -10 51 -21 0
-12 -9 -16 -20 -9 -11 7 -20 3 -20 -7 0 -30 -206 -101 -335 -116 -63 -7 -120
-20 -126 -29 -6 -9 -43 -7 -83 5 -81 25 -87 70 -19 145 83 91 114 277 62 373
-16 31 -14 39 10 39 17 0 31 -12 31 -28z"/>
<path d="M1993 2527 c-43 -44 16 -138 73 -116 43 17 59 69 32 102 -24 28 -82
36 -105 14z"/>
<path d="M4114 2037 c-77 -43 -8 -157 70 -115 20 11 36 37 36 58 0 50 -60 83
-106 57z"/>
<path d="M2101 1523 c-25 -48 17 -110 68 -100 56 11 84 67 52 105 -35 43 -95
40 -120 -5z"/>
<path d="M2601 991 c-42 -50 -17 -101 49 -101 41 0 62 11 66 36 8 41 -29 94
-66 94 -14 0 -36 -13 -49 -29z"/>
<path d="M2855 26 c35 -5 98 -5 140 -1 41 5 12 8 -65 8 -77 1 -111 -3 -75 -7z"/>
</g>
</svg>
